HIERARCHY
ROOT Hips
{
	OFFSET 0.000000 0.000000 0.000000
	CHANNELS 6 Xposition Yposition Zposition Xrotation Yrotation Zrotation
	JOINT LeftUpLeg_virtual
	{
		OFFSET 0.000000 0.000000 0.000000
		CHANNELS 3 Xrotation Yrotation Zrotation
		JOINT LeftUpLeg
		{
			OFFSET 11.394100 -6.187798 -0.413800
			CHANNELS 3 Xrotation Yrotation Zrotation
			JOINT LeftLeg
			{
				OFFSET 0.430247 -32.302673 3.732800
				CHANNELS 3 Xrotation Yrotation Zrotation
				JOINT LeftFoot
				{
					OFFSET -0.430247 -48.264931 -6.423300
					CHANNELS 3 Xrotation Yrotation Zrotation
					JOINT LeftToeBase
					{
						OFFSET 4.230900 -16.068199 23.438400
						CHANNELS 3 Xrotation Yrotation Zrotation
						JOINT LeftToe_End
						{
							OFFSET 4.510700 0.695400 19.974600
							CHANNELS 3 Xrotation Yrotation Zrotation
							End Site
							{
								OFFSET 0 0 0
							}
						}
					}
				}
			}
		}
	}
	JOINT RightUpLeg_virtual
	{
		OFFSET 0.000000 0.000000 0.000000
		CHANNELS 3 Xrotation Yrotation Zrotation
		JOINT RightUpLeg
		{
			OFFSET -11.333700 -6.187798 -0.413800
			CHANNELS 3 Xrotation Yrotation Zrotation
			JOINT RightLeg
			{
				OFFSET -0.430392 -32.302628 3.733000
				CHANNELS 3 Xrotation Yrotation Zrotation
				JOINT RightFoot
				{
					OFFSET 0.430392 -48.264973 -6.423500
					CHANNELS 3 Xrotation Yrotation Zrotation
					JOINT RightToeBase
					{
						OFFSET -4.230900 -16.068199 23.438400
						CHANNELS 3 Xrotation Yrotation Zrotation
						JOINT RightToe_End
						{
							OFFSET -4.510700 0.695400 19.974600
							CHANNELS 3 Xrotation Yrotation Zrotation
							End Site
							{
								OFFSET 0 0 0
							}
						}
					}
				}
			}
		}
	}
	JOINT Spine_virtual
	{
		OFFSET 0.000000 0.000000 0.000000
		CHANNELS 3 Xrotation Yrotation Zrotation
		JOINT Spine
		{
			OFFSET -0.002400 12.777504 0.315300
			CHANNELS 3 Xrotation Yrotation Zrotation
			JOINT Spine1
			{
				OFFSET -0.002067 5.816869 0.032633
				CHANNELS 3 Xrotation Yrotation Zrotation
				JOINT Spine1_split
				{
					OFFSET -0.002067 5.816869 0.032633
					CHANNELS 3 Xrotation Yrotation Zrotation
					JOINT Spine2
					{
						OFFSET -0.002067 5.816869 0.032633
						CHANNELS 3 Xrotation Yrotation Zrotation
						JOINT Neck_virtual
						{
							OFFSET 0.000000 0.000000 0.000000
							CHANNELS 3 Xrotation Yrotation Zrotation
							JOINT Neck
							{
								OFFSET -0.003700 21.199493 -0.826900
								CHANNELS 3 Xrotation Yrotation Zrotation
								JOINT Head
								{
									OFFSET 0.000000 20.442200 4.834800
									CHANNELS 3 Xrotation Yrotation Zrotation
									JOINT HeadTop_End
									{
										OFFSET 0.000000 34.668396 4.968400
										CHANNELS 3 Xrotation Yrotation Zrotation
										End Site
										{
											OFFSET 0 0 0
										}
									}
								}
							}
						}
						JOINT LeftShoulder_virtual
						{
							OFFSET 0.000000 0.000000 0.000000
							CHANNELS 3 Xrotation Yrotation Zrotation
							JOINT LeftShoulder
							{
								OFFSET 3.288150 8.794197 -1.372250
								CHANNELS 3 Xrotation Yrotation Zrotation
								JOINT LeftShoulder_split
								{
									OFFSET 3.288150 8.794197 -1.372250
									CHANNELS 3 Xrotation Yrotation Zrotation
									JOINT LeftArm
									{
										OFFSET 11.953299 -2.279007 -0.146200
										CHANNELS 3 Xrotation Yrotation Zrotation
										JOINT LeftForeArm
										{
											OFFSET 18.448900 0.000000 0.000000
											CHANNELS 3 Xrotation Yrotation Zrotation
											JOINT LeftHand
											{
												OFFSET 29.527798 0.000000 0.000000
												CHANNELS 3 Xrotation Yrotation Zrotation
												End Site
												{
													OFFSET 0 0 0
												}
											}
										}
									}
								}
							}
						}
						JOINT RightShoulder_virtual
						{
							OFFSET 0.000000 0.000000 0.000000
							CHANNELS 3 Xrotation Yrotation Zrotation
							JOINT RightShoulder
							{
								OFFSET -3.249400 8.794197 -1.372250
								CHANNELS 3 Xrotation Yrotation Zrotation
								JOINT RightShoulder_split
								{
									OFFSET -3.249400 8.794197 -1.372250
									CHANNELS 3 Xrotation Yrotation Zrotation
									JOINT RightArm
									{
										OFFSET -11.953299 -2.279007 -0.146200
										CHANNELS 3 Xrotation Yrotation Zrotation
										JOINT RightForeArm
										{
											OFFSET -18.448900 0.000000 0.000000
											CHANNELS 3 Xrotation Yrotation Zrotation
											JOINT RightHand
											{
												OFFSET -29.527802 0.000000 0.000000
												CHANNELS 3 Xrotation Yrotation Zrotation
												End Site
												{
													OFFSET 0 0 0
												}
											}
										}
									}
								}
							}
						}
					}
				}
			}
		}
	}
}
MOTION
Frames: 4
Frame Time: 0.03333333
-0.273239 75.425880 3.370155 0.000000 0.000000 0.000000 -8.180895 -74.590201 -5.932229 -47.974275 11.266321 51.906241 42.877042 -3.360517 -1.645254 11.043593 -5.262059 -27.201496 -2.846700 0.590241 -0.549620 0.000000 0.000000 0.000000 -10.259366 -73.998795 -7.332392 -41.789525 4.471591 -28.388396 63.594580 10.954139 -8.047115 -16.124984 -6.051656 23.406356 2.700056 0.774555 0.451626 0.000000 0.000000 0.000000 -10.039956 -75.169401 -7.615378 5.427720 -1.551792 -1.121054 2.994106 -0.390091 -3.297515 0.175418 -1.589241 0.728082 0.000000 0.000000 0.000000 6.318176 0.109251 -3.074890 -4.154296 21.697016 7.157332 1.276947 22.816310 -10.324826 0.000000 0.000000 0.000000 5.875042 -0.211418 -3.250652 0.733766 -6.033657 -17.269508 0.540478 -0.772786 -1.742323 -44.376296 -24.783049 -6.050229 -7.289475 -28.900996 -5.785449 0.000000 0.000000 0.000000 4.333145 -0.246221 -3.068807 3.790848 17.269636 3.476367 7.450685 4.410120 2.580862 16.736982 73.058176 -5.647893 107.368477 85.413838 -118.269807 0.000000 0.000000 0.000000 
-0.290282 75.750938 3.258404 0.000000 0.000000 0.000000 -9.569776 -74.823315 -7.757755 -46.991811 10.925425 51.918580 42.789107 -3.419041 -1.640021 11.023413 -4.883458 -27.096696 -2.805460 0.511992 -0.358188 0.000000 0.000000 0.000000 -11.595858 -74.291203 -8.936349 -42.041221 4.737803 -27.970315 62.091918 11.138795 -7.737415 -15.538371 -5.901269 23.727655 2.316506 0.890573 0.439331 0.000000 0.000000 0.000000 -11.115656 -75.541797 -9.098902 4.873132 -1.457876 -0.971174 2.746047 -0.384141 -3.260858 -0.201472 -1.546347 0.814492 0.000000 0.000000 0.000000 6.072068 0.012432 -2.993885 -3.855100 21.782295 7.124952 1.793641 23.131308 -10.703773 0.000000 0.000000 0.000000 5.507767 -0.217356 -3.168638 0.681918 -5.997997 -17.445736 0.472521 0.331744 -2.625226 -44.421167 -24.667590 -6.567818 -6.966392 -30.391740 -5.307848 0.000000 0.000000 0.000000 4.148229 -0.267180 -3.075610 3.726920 17.157083 3.502895 7.736838 2.607877 2.306515 16.185793 72.431868 -4.186528 90.545762 86.169475 -101.360014 0.000000 0.000000 0.000000 
-0.086448 76.394218 3.024490 0.000000 0.000000 0.000000 -12.978206 -75.620077 -11.744250 -44.606955 10.904409 51.751462 41.361884 -3.098546 -1.846177 10.961914 -3.928981 -26.574688 -3.097489 0.337927 -0.028085 0.000000 0.000000 0.000000 -14.398899 -75.110935 -12.183986 -42.843816 5.061114 -27.487914 59.868029 11.533007 -7.264820 -13.689355 -4.733929 24.216173 2.685523 0.978037 0.752561 0.000000 0.000000 0.000000 -14.072868 -76.246044 -12.633009 4.340358 -0.981411 -0.447547 2.807510 -0.381380 -3.051780 -0.232938 -1.913189 0.678434 0.000000 0.000000 0.000000 6.100091 -0.072995 -2.796207 -4.003471 21.924991 7.182889 2.356839 24.054499 -11.124085 0.000000 0.000000 0.000000 5.324215 -0.243444 -2.929579 0.364594 -6.222249 -17.870220 -0.235876 1.144670 -2.970122 -42.010014 -23.463148 -7.664337 -6.471714 -32.467516 -5.023353 0.000000 0.000000 0.000000 4.163077 -0.259371 -2.892297 3.623431 16.380045 3.992443 6.757151 1.864715 1.977640 14.865000 69.824887 -0.814959 50.469682 85.866345 -60.908601 0.000000 0.000000 0.000000 
0.213423 77.245010 2.789911 0.000000 0.000000 0.000000 -18.349322 -76.794460 -17.663786 -41.274505 11.145382 51.430273 39.246096 -2.438118 -2.246030 10.981077 -2.707449 -25.748854 -3.619582 0.098166 0.355959 0.000000 0.000000 0.000000 -18.218741 -75.888395 -16.505548 -43.721100 5.380972 -26.961931 57.609715 11.804637 -6.682094 -11.217525 -3.084503 24.668292 3.576060 1.038085 1.380968 0.000000 0.000000 0.000000 -18.259000 -76.746218 -17.382854 4.000490 -0.241153 0.304919 3.129127 -0.407510 -2.694917 0.162312 -2.511405 0.833943 0.000000 0.000000 0.000000 6.223281 -0.151999 -2.529788 -4.507738 22.031622 7.299249 2.971584 25.465484 -11.566529 0.000000 0.000000 0.000000 5.384587 -0.308961 -2.604927 -0.095164 -6.888298 -18.652074 -0.888842 1.553190 -2.891211 -36.967671 -21.817071 -9.371670 -5.826125 -35.824574 -4.873601 0.000000 0.000000 0.000000 4.368642 -0.235296 -2.570862 3.540719 15.193800 4.909569 5.010389 2.236199 1.588274 13.445460 65.704617 3.866139 23.341917 83.654272 -33.045592 0.000000 0.000000 0.000000 
